# xmcd
#
# Track frame offsets:
#	150
#	16715
#	33398
#	45471
#	58147
#	78117
#	91848
#	107409
#	120178
#	138134
#	158833
#	172253
#	184366
#	198543
#	219197
#	235864
#	254941
#	274787
#
# Disc length: 3826 seconds
#
# Revision: 1
# Processed by: cddbd v1.4PL0 Copyright (c) Steve Scherf et al.
# Submitted via: audiograbber 1.81.03
#
DISCID=ed0ef012
DTITLE=Various Artist - Open Road II Unexplored Country
DYEAR=1998
DGENRE=Country
TTITLE0=Crosby Sisters - Leather And Lace
TTITLE1=Karen Lynne - Grandma Used To Say
TTITLE2=Luke and The Drifters - Going Crazy Without you
TTITLE3=Hillbilly Moon - I Won't Come This Way Again
TTITLE4=The Flood - Tear Strained Eye
TTITLE5=Leesa Gentz - Better Off Broken
TTITLE6=James Gillard - Why Anyone
TTITLE7=Hunter and Suzy Owens - Valentine's Day
TTITLE8=The Stan Hawkins Band - Buses
TTITLE9=Elizabeth Lord - Sometime's Saying Ain't Enough
TTITLE10=Tracy Lee Killeen - Opheila's Charm
TTITLE11=The Sparnetts - Turn Back Jimmy Creek
TTITLE12=Amanda Gilmour - Touch Me Tenderly
TTITLE13=Andrew Clermont - T - Scube Special
TTITLE14=The Pigram Brothers - Going Back Home
TTITLE15=Pamela Drysdale - The Wheatfield
TTITLE16=Jodi Martin - When It Wants To Rain
TTITLE17=Uncle Bill - Maybe This Time For Sure
EXTD=
EXTT0=
EXTT1=
EXTT2=
EXTT3=
EXTT4=
EXTT5=
EXTT6=
EXTT7=
EXTT8=
EXTT9=
EXTT10=
EXTT11=
EXTT12=
EXTT13=
EXTT14=
EXTT15=
EXTT16=
EXTT17=
PLAYORDER=
